<?xml version="1.0" standalone="no"?>
<!DOCTYPE svg PUBLIC "-//W3C//DTD SVG 20010904//EN"
 "http://www.w3.org/TR/2001/REC-SVG-20010904/DTD/svg10.dtd">
<svg version="1.0" xmlns="http://www.w3.org/2000/svg"
 width="4000.000000pt" height="4000.000000pt" viewBox="0 0 4000.000000 4000.000000"
 preserveAspectRatio="xMidYMid meet">
<metadata>
Created by potrace 1.14, written by Peter Selinger 2001-2017
</metadata>
<g transform="translate(0.000000,4000.000000) scale(0.100000,-0.100000)"
fill="#000000" stroke="none">
<path d="M6413 24671 c-28 -9 -69 -30 -90 -46 -51 -38 -130 -123 -150 -160 -8
-16 -21 -37 -28 -45 -7 -8 -25 -40 -41 -70 -16 -30 -32 -57 -35 -60 -10 -8
-89 -173 -89 -186 0 -7 -5 -25 -12 -41 -18 -44 -19 -54 -21 -128 -2 -105 23
-157 93 -194 30 -16 73 -33 95 -37 91 -16 161 -58 170 -101 4 -25 -33 -108
-65 -141 -35 -37 -63 -112 -64 -167 0 -36 11 -74 38 -135 20 -47 39 -93 41
-102 2 -9 9 -27 16 -40 8 -13 14 -26 15 -30 1 -5 2 -9 4 -10 1 -2 4 -23 6 -48
5 -50 -16 -118 -44 -143 -34 -30 -135 -78 -173 -82 -63 -6 -87 20 -120 135
-15 52 -62 116 -111 149 -39 27 -77 81 -85 120 -5 24 -6 66 -2 151 5 110 -103
190 -264 195 -39 1 -96 -4 -126 -13 -31 -8 -60 -15 -66 -16 -5 -1 -57 -17
-115 -35 -110 -35 -201 -47 -232 -30 -16 9 -25 4 -54 -26 -19 -20 -34 -42 -35
-48 -3 -47 -32 -101 -69 -128 -18 -14 -49 -20 -110 -24 -75 -4 -125 -10 -125
-15 0 -1 -12 -3 -27 -4 -16 -2 -28 0 -28 3 0 4 -12 6 -26 6 -43 -2 -204 59
-204 77 0 5 -5 8 -10 8 -21 0 -80 64 -101 109 -11 25 -26 57 -32 71 -16 35
-78 134 -88 141 -11 7 -56 117 -64 155 -12 62 -17 114 -19 234 -2 69 -7 134
-12 145 -17 41 -48 57 -70 35 -9 -9 -37 -12 -77 -8 -10 1 -27 14 -37 28 -11
15 -36 36 -57 45 -74 36 -225 24 -275 -22 -17 -15 -33 -42 -43 -73 -6 -18 -27
-68 -36 -85 -5 -12 -11 -28 -13 -38 -1 -9 -5 -19 -8 -22 -7 -7 8 -89 20 -113
13 -23 23 -84 28 -162 2 -36 6 -74 9 -85 15 -66 23 -93 32 -110 5 -11 9 -32 8
-47 0 -16 3 -28 7 -28 5 0 3 -10 -3 -22 -7 -13 -11 -24 -10 -26 6 -6 -12 -62
-20 -62 -5 0 -9 -4 -9 -10 0 -5 -14 -31 -30 -57 -17 -26 -30 -57 -30 -68 0
-23 -31 -65 -48 -65 -16 0 -39 -61 -45 -119 -7 -64 -26 -93 -93 -140 -27 -19
-73 -59 -102 -90 -129 -137 -157 -163 -205 -186 -104 -53 -150 -135 -161 -290
-3 -39 -12 -87 -20 -107 -16 -37 -80 -98 -104 -98 -24 0 -70 -29 -90 -58 -14
-18 -22 -51 -26 -95 -5 -70 2 -81 33 -53 10 9 50 16 104 20 103 7 151 14 184
27 57 22 58 12 6 -80 -3 -5 -43 -9 -147 -15 -71 -4 -96 -10 -122 -28 -19 -13
-34 -26 -34 -30 0 -5 -6 -8 -14 -8 -20 0 -23 -14 -25 -123 -2 -69 2 -103 11
-114 7 -9 11 -17 10 -17 -11 -3 28 -66 57 -93 19 -18 31 -33 27 -33 -5 0 -4
-6 2 -13 6 -7 13 -25 16 -40 2 -15 7 -31 11 -37 3 -5 1 -10 -5 -10 -6 0 -9 -4
-5 -9 3 -6 -4 -36 -15 -68 -12 -32 -23 -62 -24 -68 -11 -38 -55 -108 -84 -135
-50 -45 -115 -46 -248 -4 -40 12 -56 24 -77 57 -15 22 -27 50 -27 62 -1 34
-10 169 -13 190 -24 150 -133 324 -245 390 -18 11 -32 23 -32 27 0 4 -6 8 -13
8 -32 0 -90 104 -69 125 3 3 7 12 8 19 1 8 20 39 43 70 23 30 41 61 41 69 0 7
4 17 8 23 15 18 31 79 28 109 -7 68 -56 125 -145 170 -47 24 -57 25 -78 14
-31 -17 -44 -40 -48 -92 -2 -23 -7 -58 -10 -77 -16 -99 -14 -125 11 -173 l25
-48 -38 -52 c-21 -29 -46 -61 -56 -72 -10 -11 -27 -34 -37 -51 -11 -17 -66
-60 -132 -102 -138 -88 -132 -83 -192 -157 -28 -33 -57 -67 -65 -76 -61 -63
-62 -66 -51 -132 6 -34 12 -73 14 -87 3 -14 5 -26 7 -27 1 -2 2 -6 3 -10 1 -5
7 -18 14 -30 7 -13 9 -23 5 -23 -4 0 -3 -4 2 -8 6 -4 19 -24 29 -44 l19 -37
-43 -58 c-42 -57 -118 -132 -132 -133 -14 0 -9 -35 16 -107 13 -38 27 -90 32
-114 4 -24 9 -47 10 -51 1 -5 2 -14 3 -21 1 -15 35 -37 64 -43 36 -6 68 -47
72 -90 7 -79 18 -117 51 -172 19 -31 35 -63 35 -71 2 -32 -3 -56 -17 -78 -8
-12 -14 -30 -14 -39 0 -15 28 -74 41 -84 4 -3 16 -25 29 -50 21 -40 34 -130
20 -130 -13 0 -1 -111 19 -186 6 -22 13 -53 15 -70 7 -44 17 -74 27 -74 5 0 9
-5 9 -12 0 -6 22 -32 50 -57 75 -70 133 -179 156 -295 2 -10 8 -23 13 -30 5
-6 10 -15 11 -21 5 -23 21 -57 45 -95 15 -23 25 -43 23 -45 -2 -2 -31 -6 -66
-10 -118 -12 -162 -44 -188 -136 -9 -35 -26 -84 -36 -109 -20 -46 -83 -120
-103 -120 -6 0 -16 -5 -23 -12 -16 -16 -42 -19 -77 -8 -32 11 -85 52 -85 66 0
20 -129 129 -180 153 -68 31 -152 33 -178 5 -37 -41 -71 -92 -105 -159 -38
-74 -41 -105 -22 -260 3 -27 8 -64 10 -82 2 -18 7 -38 11 -45 5 -7 9 -17 11
-23 1 -5 16 -50 33 -98 17 -49 29 -95 26 -103 -3 -8 -1 -14 4 -14 5 0 8 -8 8
-17 -2 -53 37 -183 54 -183 5 0 8 -6 8 -13 0 -7 14 -26 31 -43 17 -16 39 -45
50 -66 19 -38 68 -162 74 -188 2 -8 4 -16 5 -17 2 -2 4 -7 5 -13 1 -5 4 -12 5
-15 1 -3 3 -8 5 -12 30 -110 122 -235 180 -246 17 -4 71 -18 120 -31 102 -27
177 -27 246 0 24 10 46 20 49 24 6 8 100 53 120 58 38 9 76 8 88 -1 20 -16 39
-69 41 -113 1 -40 2 -49 16 -98 17 -62 68 -94 167 -105 21 -3 77 -66 83 -94
10 -44 68 -168 104 -223 17 -25 31 -49 31 -55 0 -5 4 -9 8 -9 4 0 15 -12 24
-27 9 -16 25 -38 35 -50 10 -12 28 -34 40 -50 64 -82 121 -152 149 -183 18
-19 42 -46 54 -60 30 -36 94 -109 130 -150 40 -45 68 -96 109 -200 19 -47 40
-92 47 -100 29 -35 46 -113 41 -189 -3 -42 -8 -88 -11 -103 -5 -22 -3 -28 10
-28 16 0 73 36 85 53 3 5 9 8 13 8 3 -1 16 1 29 4 46 11 73 12 88 4 23 -12 99
-17 105 -7 3 4 9 6 14 3 5 -3 18 7 30 22 20 26 22 35 15 103 -14 131 -13 194
0 221 8 14 48 61 90 103 160 164 161 238 2 401 -83 85 -90 104 -62 186 25 72
67 171 76 179 3 3 14 26 24 53 10 26 22 47 28 47 6 0 8 3 4 6 -7 7 182 385
229 460 18 28 47 63 63 77 29 24 36 25 118 22 49 -2 111 -7 138 -11 28 -4 57
-6 65 -5 25 5 48 31 55 62 8 37 41 59 78 52 15 -3 27 -9 27 -13 0 -22 109 -35
151 -18 50 20 66 13 74 -32 11 -63 84 -154 159 -198 60 -35 115 -39 159 -11
20 13 41 34 48 46 22 42 77 44 169 8 33 -13 57 -18 53 -12 -4 7 1 5 12 -3 10
-8 19 -14 19 -13 1 3 91 32 121 39 11 2 38 5 60 5 78 2 91 32 55 126 -12 32
-16 54 -10 58 6 3 10 4 10 1 0 -3 12 1 27 9 17 9 31 11 38 5 7 -6 14 -8 16 -5
3 2 20 -9 39 -25 37 -32 71 -37 117 -19 117 48 181 -12 264 -248 45 -126 72
-165 144 -200 50 -25 142 -23 200 3 22 10 45 19 50 20 6 1 12 3 15 4 19 7 70
7 70 -1 0 -6 4 -8 9 -5 9 6 86 -32 218 -107 141 -81 332 -177 351 -177 10 0
23 -5 28 -10 6 -6 35 -12 65 -14 30 -2 68 -9 84 -15 28 -11 75 -68 75 -91 0
-5 5 -10 10 -10 6 0 10 -5 10 -11 0 -13 53 -65 103 -103 63 -47 105 -65 217
-93 75 -18 177 -5 252 33 116 58 143 82 293 259 14 17 30 45 36 63 6 17 14 32
17 32 4 0 34 -9 66 -20 102 -34 137 -66 187 -167 32 -66 70 -98 137 -115 61
-15 67 -16 70 -18 1 -2 5 -3 10 -4 4 -1 45 -14 92 -29 95 -30 123 -30 314 -2
59 9 133 41 211 92 27 18 57 33 65 33 9 0 22 6 29 13 8 8 50 12 139 12 119 -1
131 -3 183 -29 31 -15 74 -43 95 -62 22 -18 54 -39 73 -45 40 -13 128 -6 191
17 25 8 61 17 80 20 90 11 115 16 118 25 2 5 8 7 13 3 5 -3 12 2 15 10 3 9 12
16 20 16 8 0 14 4 14 9 0 18 59 29 126 25 91 -6 94 -6 94 -16 0 -4 8 -8 18 -8
10 0 38 -9 61 -21 24 -11 45 -19 47 -16 12 12 -71 73 -169 122 -62 32 -114 60
-117 64 -3 3 -18 13 -34 21 -15 8 -50 36 -76 63 -43 44 -59 68 -108 175 -18
37 -45 48 -87 32 -26 -10 -31 -8 -53 20 -13 16 -27 28 -32 25 -12 -7 -21 10
-26 48 -16 112 -68 167 -174 181 -84 12 -107 16 -138 25 -18 5 -33 9 -35 9 -1
-1 -18 6 -37 15 -38 19 -80 75 -80 107 0 33 -27 77 -52 85 -31 10 -37 12 -43
15 -6 3 -21 7 -33 9 -31 4 -57 48 -81 139 -13 46 -63 103 -129 147 -23 15 -42
32 -42 37 0 5 -4 7 -9 4 -5 -4 -11 -3 -13 1 -5 13 -96 83 -106 83 -6 0 -12 3
-14 8 -1 4 -23 22 -48 41 -60 46 -124 114 -167 178 -44 66 -98 99 -176 106
-71 7 -130 36 -180 89 -44 47 -62 87 -71 153 -7 45 -31 119 -47 140 -8 11 -6
36 6 91 9 38 -21 74 -77 95 -36 12 -46 29 -38 64 9 43 -3 532 -14 543 -3 3 -1
11 5 19 6 7 7 13 2 13 -9 0 -8 58 3 125 3 22 7 47 8 55 15 94 86 272 148 372
13 20 45 74 72 120 27 46 55 90 62 98 7 8 12 17 12 20 -1 3 10 23 24 45 13 22
38 65 54 95 16 30 35 60 42 68 6 7 12 20 12 28 0 8 3 14 8 14 4 0 15 17 25 38
9 20 28 55 41 77 30 47 47 78 73 125 10 19 31 54 46 77 33 52 36 65 17 68 -8
2 -43 10 -78 19 -59 16 -125 31 -182 42 -33 6 -118 6 -150 -1 -43 -8 -102 -58
-127 -105 -32 -62 -54 -77 -109 -78 -25 -1 -65 -10 -88 -21 -66 -32 -91 -31
-132 4 -16 14 -32 25 -35 25 -8 0 -87 113 -95 136 -4 11 -12 25 -18 33 -5 7
-11 18 -12 25 -2 6 -12 38 -24 70 -23 63 -27 136 -17 307 7 122 -15 185 -93
268 -14 15 -34 43 -44 63 -18 33 -18 41 -6 77 7 22 20 49 29 59 33 37 81 145
86 192 3 24 22 69 50 119 7 13 31 42 52 65 64 68 103 147 118 238 23 139 44
219 93 343 36 93 44 149 31 219 -13 71 -20 119 -24 169 -5 57 -30 116 -79 190
-20 30 -36 57 -36 60 0 3 35 30 78 60 184 131 218 186 216 353 -1 102 -1 102
-35 136 -78 80 -231 178 -276 178 -24 0 -98 40 -128 68 -47 44 -58 61 -100
153 -38 83 -40 86 -54 65 -8 -11 -15 -22 -16 -24 -9 -12 -67 -10 -114 4 -69
21 -70 22 -101 28 -53 12 -77 16 -120 21 -25 3 -54 7 -65 10 -11 2 -37 9 -57
14 -65 15 -163 68 -201 107 -27 28 -38 49 -42 83 -11 81 -15 95 -39 122 -44
50 -123 62 -213 30z"/>
<path d="M12035 23403 c-67 -16 -130 -140 -150 -293 -6 -45 -6 -6192 0 -6244
8 -73 27 -151 48 -195 23 -49 83 -115 98 -106 5 4 9 1 9 -5 0 -6 5 -8 13 -3 6
4 20 9 30 10 26 4 67 51 93 108 57 123 54 -68 52 3345 l-3 3135 -23 70 c-31
92 -68 150 -109 169 -19 9 -35 15 -36 15 -1 -1 -11 -3 -22 -6z"/>
<path d="M14469 23386 c-2 -2 -33 -7 -69 -10 -36 -4 -103 -16 -150 -26 -47
-11 -96 -23 -110 -26 -14 -3 -29 -9 -34 -15 -6 -5 -17 -9 -25 -9 -27 0 -284
-132 -311 -160 -3 -3 -30 -24 -60 -46 -72 -54 -153 -134 -218 -214 -29 -36
-57 -70 -62 -77 -6 -7 -15 -24 -22 -38 -6 -14 -14 -25 -18 -25 -4 0 -13 -13
-20 -30 -7 -16 -17 -30 -22 -30 -5 0 -7 -4 -3 -9 3 -5 -2 -16 -10 -24 -8 -9
-15 -19 -15 -23 0 -4 -11 -30 -25 -58 -37 -79 -65 -153 -58 -160 4 -3 2 -6 -4
-6 -6 0 -13 -12 -16 -27 -3 -16 -13 -57 -22 -93 -8 -35 -18 -80 -21 -100 -3
-19 -7 -37 -9 -40 -14 -23 -22 -296 -11 -415 10 -115 55 -333 86 -410 4 -11
14 -36 21 -55 42 -118 139 -285 223 -385 89 -105 246 -245 275 -245 6 0 11 -4
11 -9 0 -11 209 -115 270 -135 59 -19 165 -46 204 -52 17 -3 47 -8 66 -11 49
-9 347 -8 395 1 118 22 274 71 287 90 4 6 8 7 8 3 0 -19 284 148 357 209 12
11 35 29 50 41 16 12 50 41 77 66 l49 44 -28 51 c-15 29 -38 58 -50 66 -21 14
-25 13 -50 -14 -16 -16 -32 -27 -37 -24 -4 3 -8 1 -8 -4 0 -24 -320 -212 -362
-212 -8 0 -19 -5 -24 -10 -6 -6 -21 -13 -35 -16 -38 -8 -54 -12 -56 -14 -2 -2
-6 -3 -10 -4 -5 -1 -17 -5 -28 -9 -11 -3 -33 -9 -50 -12 -16 -2 -57 -10 -90
-16 -33 -6 -114 -11 -180 -10 -111 0 -158 7 -280 44 -22 7 -130 59 -135 66 -3
3 -25 19 -50 35 -78 51 -197 181 -257 281 -28 46 -93 185 -93 197 0 8 -4 18
-9 24 -5 5 -14 27 -21 49 -6 22 -18 63 -26 90 -27 93 -54 249 -60 350 -5 83
-4 294 1 330 2 17 7 56 10 88 7 63 8 67 19 112 40 160 49 191 58 202 6 7 8 13
4 13 -4 0 0 14 9 30 9 17 14 30 11 30 -2 0 18 44 46 98 47 91 120 198 185 267
24 26 133 119 169 143 70 48 204 99 303 117 104 18 317 12 421 -11 14 -3 36
-8 50 -10 65 -12 227 -78 254 -104 8 -8 25 -79 30 -130 2 -14 6 -35 10 -46 4
-12 9 -37 11 -55 3 -19 7 -44 10 -56 11 -50 14 -62 19 -94 23 -138 38 -203 47
-215 8 -10 109 -13 180 -6 15 2 17 18 15 127 0 69 3 125 7 125 5 0 5 5 2 11
-11 16 -12 69 -2 69 4 0 5 5 1 11 -3 6 -6 84 -6 172 1 89 -2 167 -6 172 -10
14 -182 95 -202 95 -6 0 -18 4 -28 9 -26 14 -103 40 -134 45 -15 2 -32 7 -37
10 -5 3 -26 8 -47 11 -22 3 -45 8 -53 11 -8 2 -28 7 -45 9 -17 3 -49 7 -71 11
-45 7 -360 15 -366 10z"/>
<path d="M26425 23379 c-27 -4 -70 -10 -95 -13 -25 -3 -57 -9 -72 -15 -14 -5
-28 -7 -31 -5 -3 3 -15 0 -27 -6 -12 -6 -33 -14 -47 -16 -14 -3 -39 -12 -54
-20 -16 -8 -29 -12 -29 -9 0 9 -220 -105 -256 -132 -17 -13 -36 -23 -42 -23
-6 0 -15 -6 -19 -14 -4 -7 -13 -15 -19 -17 -15 -5 -105 -82 -159 -134 -79 -77
-215 -251 -215 -274 0 -5 -3 -11 -8 -13 -6 -3 -96 -174 -98 -188 0 -3 -6 -18
-12 -33 -7 -16 -12 -35 -12 -43 0 -8 -5 -14 -11 -14 -5 0 -8 -3 -6 -7 3 -5 0
-19 -6 -33 -5 -14 -11 -32 -12 -40 -1 -8 -7 -33 -13 -55 -6 -22 -14 -53 -16
-70 -3 -16 -8 -39 -10 -51 -34 -167 -25 -455 20 -649 8 -38 17 -77 19 -85 3
-13 20 -67 41 -130 3 -8 5 -17 5 -20 1 -3 5 -11 11 -17 6 -7 8 -13 5 -13 -15
0 129 -263 168 -307 5 -6 21 -26 35 -45 32 -42 165 -178 175 -178 4 0 15 -8
24 -18 25 -27 130 -94 206 -132 39 -19 72 -38 75 -42 3 -3 19 -10 35 -14 17
-4 36 -11 43 -17 6 -5 12 -6 12 -3 0 4 9 2 21 -4 11 -6 29 -13 40 -16 10 -2
29 -6 42 -9 123 -27 203 -37 322 -41 151 -4 249 8 375 46 86 26 310 128 310
142 0 5 4 7 8 4 5 -3 18 3 29 14 12 10 24 16 27 13 3 -4 6 -1 6 5 0 7 7 12 15
12 8 0 15 5 15 10 0 6 6 10 14 10 8 0 16 7 20 15 3 8 13 15 23 15 14 0 26 -27
56 -123 22 -67 40 -128 41 -135 4 -22 28 -32 83 -32 41 0 53 4 57 18 4 14 15
128 20 212 1 14 4 30 7 35 4 6 7 152 8 325 2 333 8 531 16 566 5 23 25 29 115
38 39 4 82 9 153 20 26 4 37 25 37 72 0 53 -13 63 -75 59 -57 -5 -682 -6 -825
-3 l-95 3 0 -59 c-1 -68 1 -69 110 -81 99 -10 127 -14 150 -19 11 -3 23 -5 27
-5 3 -1 7 -169 7 -374 1 -345 0 -375 -16 -389 -20 -17 -54 -32 -65 -30 -5 1
-8 -2 -8 -8 0 -5 -9 -10 -20 -10 -11 0 -20 -4 -20 -10 0 -5 -5 -10 -11 -10 -6
0 -25 -6 -42 -14 -33 -14 -56 -23 -70 -25 -4 0 -23 -7 -42 -15 -19 -8 -35 -13
-35 -11 0 2 -18 -2 -40 -10 -22 -8 -40 -12 -40 -10 0 2 -15 -1 -32 -6 -37 -10
-166 -22 -243 -23 -155 0 -313 48 -444 136 -67 45 -213 195 -242 250 -7 12
-18 29 -26 36 -7 8 -11 18 -8 23 4 5 2 9 -3 9 -22 0 -141 298 -156 391 -3 20
-8 42 -10 50 -3 8 -7 30 -10 49 -3 19 -8 46 -11 60 -23 112 -23 458 0 570 3
14 8 41 11 60 15 99 67 255 121 365 54 111 54 112 129 210 149 194 349 324
559 361 80 14 401 6 457 -12 10 -3 30 -7 45 -10 85 -14 281 -92 284 -112 1 -8
4 -24 24 -127 9 -44 18 -91 21 -105 2 -14 9 -47 14 -75 5 -27 12 -61 14 -75 3
-14 7 -34 9 -45 3 -11 10 -53 17 -92 13 -70 14 -73 44 -78 26 -4 86 -3 157 4
13 1 16 10 15 39 -2 20 2 43 7 50 5 6 6 12 1 12 -5 0 -9 29 -9 65 0 36 4 65 9
65 5 0 4 6 -1 13 -5 6 -7 39 -6 72 4 75 4 66 0 153 -1 39 2 72 6 72 5 0 5 5 1
12 -4 7 -8 39 -9 71 0 50 -4 61 -25 78 -14 10 -33 19 -42 19 -9 0 -20 5 -23
10 -3 6 -15 10 -26 10 -10 0 -19 5 -19 10 0 5 -3 9 -7 8 -5 0 -15 2 -23 5 -31
13 -226 75 -255 81 -17 3 -52 10 -80 16 -27 5 -61 11 -75 14 -99 19 -428 29
-515 15z"/>
<path d="M31279 23296 c-4 -83 4 -100 49 -102 15 -1 43 -4 62 -7 19 -3 60 -9
90 -13 30 -4 60 -7 65 -8 6 -1 15 -4 20 -8 7 -4 9 -403 8 -1170 -2 -1129 -4
-1332 -15 -1343 -7 -7 -41 -14 -98 -20 -25 -3 -62 -7 -82 -10 -21 -3 -54 -7
-74 -9 -19 -2 -37 -6 -40 -8 -2 -3 -5 -25 -5 -49 -3 -84 -23 -77 204 -74 111
2 203 4 205 5 7 7 29 5 39 -2 6 -5 14 -5 17 0 3 5 18 7 33 5 32 -5 38 -5 73 0
14 2 31 -1 38 -6 7 -6 12 -6 12 0 0 6 12 8 28 6 15 -2 33 -4 40 -3 12 0 92 0
115 0 6 0 23 1 37 3 14 2 31 -1 38 -6 6 -5 12 -6 12 -1 0 5 16 9 35 9 19 0 35
-4 35 -8 0 -5 4 -6 9 -2 14 8 71 13 71 6 0 -4 9 -7 20 -7 11 0 20 3 20 7 0 3
15 4 33 2 35 -5 39 -5 77 0 14 2 31 -1 38 -6 7 -6 12 -6 12 0 0 6 15 8 33 6
17 -3 38 -4 45 -4 11 1 117 2 145 1 6 0 31 1 55 3 23 2 42 -1 42 -6 0 -6 5 -6
13 -1 15 11 38 11 55 1 6 -5 12 -4 12 0 0 10 61 10 78 -1 7 -4 12 -4 12 1 0 4
16 8 35 8 19 0 35 -4 35 -8 0 -5 6 -5 13 0 17 10 69 10 85 -1 7 -5 12 -5 12 1
0 5 15 8 33 6 60 -7 102 -2 117 14 13 14 13 15 0 8 -11 -6 -12 -5 -4 4 7 8 9
25 4 46 -4 19 -5 36 -3 39 8 8 8 705 0 712 -12 12 -95 11 -119 -2 -12 -7 -20
-13 -16 -14 4 0 1 -21 -7 -47 -16 -55 -84 -316 -91 -352 -3 -14 -7 -28 -9 -32
-3 -4 -7 -24 -11 -45 -3 -22 -10 -44 -15 -50 -5 -6 -6 -14 -2 -17 3 -4 1 -7
-5 -7 -6 0 -9 -6 -6 -13 3 -8 1 -25 -5 -38 l-9 -25 -533 1 -534 0 0 610 0 610
109 0 c59 0 110 -3 113 -8 2 -4 8 -5 12 -3 10 7 64 7 206 3 152 -5 142 -4 142
-24 -1 -22 14 -94 21 -107 3 -5 6 -23 8 -41 5 -56 44 -199 56 -206 13 -8 92
-4 106 5 5 3 8 31 5 63 -6 91 -6 637 0 750 3 56 2 105 -2 108 -16 9 -86 12
-106 5 -16 -6 -25 -29 -45 -111 -13 -57 -24 -106 -25 -109 -5 -26 -28 -130
-29 -131 0 0 -129 -3 -286 -6 l-285 -5 1 524 c1 287 2 528 3 533 1 11 945 15
956 3 5 -5 18 -47 41 -138 2 -8 13 -51 24 -95 32 -124 38 -147 49 -190 5 -22
14 -55 19 -72 6 -18 8 -33 5 -33 -3 0 -1 -6 4 -12 6 -7 13 -30 17 -50 9 -52
23 -57 121 -50 21 2 21 6 20 415 l-1 412 -40 0 c-22 1 -45 4 -52 9 -6 4 -12 4
-12 -1 0 -10 -212 -9 -229 1 -6 4 -11 4 -11 -1 0 -10 -212 -9 -229 1 -6 4 -11
4 -11 -1 0 -10 -212 -9 -229 1 -6 4 -11 4 -11 -1 0 -10 -212 -9 -229 1 -6 4
-11 4 -11 -1 0 -4 -76 -8 -170 -8 -93 0 -170 4 -170 8 0 5 -5 5 -12 1 -13 -8
-107 -8 -115 -1 -2 3 -20 1 -39 -3 -18 -4 -34 -5 -34 -1 0 3 -74 7 -165 7
l-165 2 -1 -32z"/>
<path d="M30379 22818 c-19 -6 -30 -23 -44 -66 -11 -31 -19 -60 -17 -64 1 -5
-2 -8 -8 -8 -5 0 -10 -9 -10 -19 0 -11 -4 -22 -9 -25 -5 -3 -12 -17 -15 -31
-6 -24 -78 -140 -108 -175 -24 -29 -95 -79 -102 -73 -3 3 -6 1 -6 -5 0 -7 -9
-12 -20 -12 -11 0 -20 -4 -20 -8 0 -5 -6 -9 -12 -9 -7 0 -31 -5 -54 -12 l-41
-11 1 -66 c1 -51 5 -68 16 -70 50 -10 71 -13 120 -19 30 -4 66 -9 80 -10 14
-1 27 -3 31 -4 3 0 5 -283 6 -628 0 -446 4 -649 12 -700 7 -39 13 -77 15 -85
6 -42 80 -168 118 -205 44 -40 109 -79 152 -90 78 -20 257 -6 331 26 97 42
132 59 188 95 l64 41 -14 52 c-15 51 -40 72 -67 55 -6 -3 -15 -7 -21 -9 -5 -1
-48 -13 -95 -27 -157 -47 -238 -28 -284 68 -13 28 -27 65 -30 81 -4 17 -9 41
-13 55 -4 14 -8 296 -10 628 -4 492 -2 602 9 603 7 0 24 3 38 5 14 3 41 6 60
9 19 2 35 4 35 5 0 1 14 3 31 5 16 2 48 6 70 9 21 4 86 14 144 22 58 9 107 18
110 21 9 9 7 123 -2 129 -6 4 -120 7 -254 7 l-244 0 0 253 0 254 -22 4 c-50
10 -86 12 -109 4z"/>
<path d="M22104 22812 c-5 -4 -15 -20 -21 -37 -6 -16 -14 -39 -19 -50 -4 -11
-8 -25 -10 -32 -1 -7 -23 -56 -50 -109 -52 -106 -148 -218 -196 -230 -16 -3
-28 -10 -28 -16 0 -5 -4 -7 -9 -3 -5 3 -12 1 -16 -4 -3 -6 -25 -13 -49 -16
-50 -8 -56 -18 -56 -97 0 -56 2 -57 140 -73 30 -3 64 -7 75 -10 11 -2 25 -4
31 -4 7 -1 10 -195 10 -623 0 -343 3 -643 7 -668 19 -146 54 -232 124 -310 92
-103 224 -139 394 -108 55 10 210 65 219 78 3 4 23 17 45 29 95 51 96 52 81
102 -21 72 -29 74 -137 39 -217 -71 -299 -47 -355 105 -27 72 -32 185 -33 736
l-1 577 47 7 c27 5 57 9 68 11 11 1 38 5 60 9 22 3 54 8 70 10 17 2 30 4 30 5
0 1 14 3 30 5 17 1 46 6 65 9 19 3 54 8 78 10 23 2 44 5 46 7 9 9 14 87 8 114
l-7 30 -245 0 -245 0 -3 250 c-2 184 -6 251 -15 257 -15 10 -118 10 -133 0z"/>
<path d="M16380 22457 c-3 -3 -25 -8 -50 -11 -25 -3 -56 -8 -70 -11 -14 -2
-47 -6 -75 -10 -27 -3 -63 -7 -80 -10 -16 -3 -52 -7 -80 -10 -27 -3 -74 -7
-104 -11 -30 -3 -71 -8 -90 -9 -20 -2 -39 -4 -43 -4 -12 -1 -21 -69 -14 -105
5 -28 11 -34 26 -31 11 2 20 1 20 -3 0 -4 15 -8 33 -8 57 -2 198 -21 205 -28
10 -11 12 -115 12 -656 0 -683 -2 -790 -13 -807 -5 -7 -4 -13 2 -13 8 0 8 -20
1 -40 -1 -3 -2 -12 -1 -22 2 -20 -19 -25 -179 -43 -38 -5 -104 -16 -106 -18
-6 -7 -9 -87 -4 -107 l6 -25 516 0 c513 -1 517 0 520 20 2 11 1 41 0 67 -4 44
-5 46 -40 53 -21 4 -57 9 -82 11 -25 2 -61 7 -80 10 -19 3 -48 7 -65 10 -16 2
-43 6 -60 8 -16 3 -40 5 -53 5 l-24 1 4 577 c2 392 7 584 14 598 19 38 95 120
154 169 33 27 127 73 181 90 60 17 253 13 328 -7 l53 -15 14 33 c7 18 16 48
19 66 3 19 9 50 13 69 6 31 7 112 2 125 -2 3 -3 8 -4 13 -12 52 -23 60 -93 67
-21 2 -38 5 -38 5 0 1 -22 3 -50 4 -45 2 -75 -2 -143 -18 -30 -7 -116 -54
-141 -77 -11 -11 -23 -19 -27 -19 -14 0 -118 -107 -175 -180 -77 -97 -72 -91
-86 -120 -8 -19 -10 19 -8 171 2 188 1 198 -19 224 -12 14 -23 24 -26 22z"/>
<path d="M19947 22445 c-21 -7 -40 -9 -43 -4 -3 5 -10 7 -15 3 -5 -3 -19 -7
-32 -9 -52 -9 -175 -25 -217 -29 -25 -3 -65 -7 -90 -10 -25 -3 -69 -8 -99 -10
-30 -3 -56 -7 -58 -9 -2 -2 -5 -27 -6 -55 -4 -52 4 -76 23 -78 5 -1 11 -2 13
-4 1 -1 24 -3 51 -5 27 -3 63 -7 80 -10 27 -6 53 -9 106 -14 20 -1 21 -26 23
-1219 1 -634 -2 -1012 -8 -1012 -5 0 -4 -5 3 -12 7 -7 8 -17 1 -30 -7 -12 -6
-18 1 -18 6 0 8 -5 4 -11 -4 -7 -8 -57 -10 -111 -2 -55 -4 -102 -6 -103 -3 -3
-46 -11 -115 -20 -98 -14 -167 -25 -170 -29 -6 -6 -6 -93 1 -112 6 -20 12 -21
156 -19 83 1 153 4 156 8 3 3 16 2 28 -3 13 -4 29 -5 36 0 7 5 24 4 36 0 14
-6 26 -5 29 0 3 6 15 6 30 0 15 -6 27 -6 30 1 4 6 13 6 23 0 10 -6 23 -6 34 0
12 6 18 6 18 0 0 -7 8 -7 23 -2 12 5 31 5 42 1 11 -4 27 -4 36 1 9 5 19 5 23
2 3 -3 71 -8 150 -9 106 -2 145 0 149 9 4 10 3 93 -1 122 -1 6 -14 12 -28 13
-14 1 -56 7 -93 13 -36 5 -84 12 -106 15 -22 2 -60 7 -85 12 l-45 8 -1 432
c-1 237 0 432 3 432 2 0 23 -13 46 -28 23 -15 56 -34 72 -42 17 -8 32 -17 35
-20 10 -10 107 -40 175 -55 84 -17 266 -13 340 8 92 27 195 68 195 79 0 4 6 8
13 8 22 0 139 90 207 159 69 71 154 190 183 256 10 22 25 52 33 68 8 15 13 27
9 27 -3 0 1 12 9 28 17 33 55 206 63 287 16 164 3 373 -33 505 -24 87 -23 86
-66 180 -55 118 -157 243 -256 312 -49 34 -158 85 -193 91 -13 2 -32 7 -42 12
-23 10 -200 11 -257 1 -25 -4 -51 -8 -57 -9 -7 0 -13 -4 -13 -9 0 -5 -5 -6
-10 -3 -6 4 -17 1 -25 -5 -8 -7 -15 -10 -15 -7 0 13 -129 -49 -200 -97 -41
-27 -105 -80 -142 -117 -37 -37 -70 -63 -73 -59 -3 5 -2 53 2 107 10 128 8
168 -8 190 -18 23 -26 24 -72 8z m611 -209 c6 -3 13 -2 17 4 4 6 11 7 17 4 6
-4 29 -9 52 -12 58 -6 139 -48 196 -101 65 -62 140 -183 132 -213 -1 -5 3 -8
9 -8 6 0 9 -6 6 -12 -2 -7 0 -21 5 -31 10 -20 10 -19 28 -127 20 -115 17 -439
-5 -550 -3 -14 -10 -52 -16 -85 -18 -106 -66 -225 -124 -312 -50 -73 -151
-154 -214 -169 -9 -2 -32 -7 -52 -12 -47 -12 -187 -6 -242 9 -23 7 -49 14 -57
15 -56 11 -180 88 -246 153 l-42 41 0 556 1 556 39 46 c108 126 248 217 368
238 36 7 50 10 54 15 7 6 61 3 74 -5z"/>
<path d="M23800 22453 c-147 -16 -316 -80 -414 -156 -95 -74 -145 -128 -234
-252 -18 -26 -63 -115 -57 -115 3 0 -1 -10 -9 -22 -12 -21 -48 -118 -51 -143
-1 -5 -3 -12 -4 -15 -1 -3 -5 -16 -7 -30 -40 -208 -39 -427 2 -595 8 -33 17
-68 19 -78 25 -108 128 -287 220 -382 124 -127 256 -200 430 -237 77 -16 282
-19 350 -4 33 7 65 13 70 14 21 4 82 24 112 38 17 8 33 14 36 14 11 0 132 73
135 82 2 4 8 8 14 8 22 0 218 214 218 238 0 6 6 17 13 24 21 22 93 183 102
228 2 8 10 44 20 79 9 35 14 70 11 77 -3 8 -2 14 3 14 9 0 14 70 14 200 0 86
-3 116 -17 216 -14 91 -90 314 -108 314 -4 0 -8 7 -8 15 0 15 -64 114 -105
164 -60 71 -178 168 -240 197 -16 8 -37 19 -45 24 -49 30 -175 69 -248 77 -60
6 -190 9 -222 6z m190 -157 c91 -20 210 -109 279 -209 33 -48 96 -181 92 -195
-1 -1 5 -18 13 -37 8 -19 13 -35 11 -35 -2 0 1 -15 6 -32 5 -18 12 -53 15 -78
3 -25 10 -67 14 -95 8 -53 5 -361 -4 -410 -3 -16 -8 -43 -11 -60 -9 -52 -13
-69 -26 -115 -7 -25 -13 -47 -14 -50 -12 -44 -30 -90 -35 -90 -4 0 -7 -6 -7
-13 0 -26 -76 -140 -127 -190 -32 -32 -79 -64 -126 -86 -71 -33 -81 -35 -180
-35 -101 0 -108 1 -180 37 -88 43 -101 53 -163 130 -40 49 -64 91 -107 192
-17 39 -40 117 -46 153 -3 21 -7 44 -9 52 -10 33 -17 96 -21 178 -2 48 -5 104
-6 125 -2 20 -1 37 2 37 3 0 5 30 6 68 1 104 15 218 31 262 3 8 7 28 9 43 16
123 156 333 264 397 58 33 95 50 115 50 11 0 26 4 33 9 14 8 126 6 172 -3z"/>
<path d="M28906 22453 c-2 -3 -26 -6 -53 -8 -173 -12 -410 -160 -538 -335 -67
-92 -130 -226 -151 -321 -33 -155 -36 -187 -37 -349 -1 -156 4 -239 18 -304 2
-12 6 -34 9 -51 2 -16 9 -50 16 -75 7 -25 14 -52 15 -62 6 -30 88 -198 96
-198 5 0 9 -5 9 -11 0 -10 50 -77 80 -108 52 -53 220 -164 220 -146 0 3 12 -3
27 -12 15 -10 27 -17 28 -15 0 2 7 1 15 -1 49 -15 101 -27 145 -34 63 -10 286
-10 340 0 75 14 85 16 95 22 5 3 20 8 31 10 47 9 180 81 233 125 83 70 108
100 103 122 -7 27 -55 88 -70 88 -7 0 -73 -45 -142 -98 -25 -19 -160 -79 -197
-88 -5 -1 -9 -2 -10 -4 -5 -3 -41 -10 -73 -14 -16 -3 -32 -5 -35 -6 -24 -10
-177 7 -225 24 -143 52 -232 141 -294 298 -51 128 -72 263 -75 478 l-1 105
566 0 c441 1 572 4 597 14 l31 13 -4 106 c-2 58 -6 117 -9 131 -3 14 -8 42
-10 61 -3 19 -8 44 -11 55 -2 11 -9 39 -15 62 -31 130 -125 303 -204 376 -77
71 -213 133 -316 144 -60 6 -200 10 -204 6z m203 -183 c58 -37 67 -48 120
-144 33 -59 66 -186 76 -292 17 -167 16 -171 -27 -180 -78 -16 -137 -19 -443
-19 -297 0 -340 2 -336 15 2 8 5 29 7 45 4 45 12 86 23 123 5 17 8 32 6 32 -5
0 43 128 53 145 4 5 7 15 8 20 2 13 62 111 84 139 125 155 297 202 429 116z"/>
<path d="M36350 22451 c0 -4 -8 -7 -17 -7 -10 -1 -43 -5 -73 -9 -30 -4 -66 -8
-80 -10 -14 -1 -38 -5 -55 -9 -16 -3 -59 -8 -95 -10 -36 -2 -76 -7 -90 -10
-14 -3 -52 -8 -85 -10 -33 -3 -62 -5 -65 -5 -9 -1 -12 -65 -7 -115 2 -22 12
-25 152 -40 33 -4 69 -8 80 -11 11 -2 27 -4 36 -4 12 -1 17 -14 19 -58 5 -88
4 -2244 -1 -2356 -2 -55 -6 -100 -9 -102 -3 -2 -24 -6 -46 -9 -22 -4 -49 -8
-59 -10 -11 -2 -47 -7 -79 -11 -102 -12 -105 -14 -103 -87 l2 -63 85 -1 c47 0
90 4 97 8 6 5 13 5 16 1 6 -9 154 -9 164 0 3 4 13 3 22 -2 9 -5 25 -5 36 -1
11 4 30 4 42 -1 13 -5 25 -4 28 1 4 6 13 7 23 1 11 -6 24 -6 34 0 10 6 19 6
23 0 3 -6 15 -7 28 -2 12 5 31 5 42 1 11 -4 27 -4 36 1 9 5 19 6 23 2 10 -11
295 -13 302 -2 7 11 7 119 1 126 -5 4 -20 7 -87 18 -25 3 -58 9 -75 12 -16 2
-43 6 -60 9 -56 7 -110 15 -125 20 -13 3 -15 58 -15 428 0 234 4 428 8 432 4
4 17 -2 30 -13 12 -11 42 -31 67 -43 25 -13 48 -27 51 -32 3 -5 10 -9 15 -9 5
1 36 -8 70 -19 89 -30 117 -34 249 -34 221 0 385 67 568 233 37 33 65 61 62
61 -3 0 11 17 30 37 19 20 38 45 41 55 3 10 9 18 13 18 18 0 133 253 147 325
2 11 6 31 9 45 12 52 15 67 20 110 11 82 12 314 3 385 -10 79 -43 230 -57 260
-84 184 -120 239 -220 333 -128 121 -259 173 -446 175 -54 0 -152 -8 -165 -14
-3 -1 -9 -3 -15 -4 -16 -2 -87 -27 -125 -43 -19 -9 -38 -15 -42 -14 -5 1 -8
-2 -8 -8 0 -5 -5 -10 -11 -10 -23 0 -152 -95 -218 -161 -38 -38 -71 -69 -73
-69 -5 0 6 196 13 248 6 37 -20 73 -55 76 -14 2 -26 0 -26 -3z m561 -216 c8 7
82 8 124 1 53 -9 153 -58 190 -94 40 -39 85 -90 85 -98 0 -3 9 -19 21 -35 11
-16 17 -29 14 -29 -4 0 -1 -10 7 -22 21 -33 52 -140 66 -233 8 -51 7 -427 -1
-480 -22 -141 -22 -142 -43 -217 -22 -83 -85 -215 -123 -257 -17 -19 -32 -37
-33 -40 -13 -29 -147 -109 -195 -117 -62 -11 -243 -7 -243 6 0 3 -16 6 -35 7
-48 2 -190 73 -245 123 -25 22 -47 40 -50 40 -3 0 -13 12 -21 28 -13 23 -15
101 -14 578 l0 550 25 26 c14 14 41 43 61 64 89 96 229 177 329 191 19 3 39 9
44 14 6 5 14 4 21 -1 7 -5 14 -8 16 -5z"/>
<path d="M38948 22455 c-2 -2 -28 -5 -58 -9 -120 -13 -213 -47 -350 -130 -125
-74 -266 -250 -331 -411 -13 -33 -26 -62 -29 -65 -3 -3 -6 -14 -7 -25 0 -11
-8 -45 -17 -75 -19 -66 -27 -115 -31 -195 -2 -33 -5 -60 -5 -60 -2 0 -2 -99 0
-105 0 -3 2 -34 4 -70 4 -72 22 -181 36 -220 6 -14 11 -34 13 -45 8 -45 54
-147 99 -224 21 -34 38 -65 38 -67 0 -2 8 -12 18 -22 9 -11 33 -37 52 -58 47
-52 123 -113 185 -149 28 -16 52 -30 55 -30 3 0 14 -6 25 -12 25 -13 115 -43
149 -48 14 -3 38 -8 54 -11 45 -10 267 -13 309 -4 21 5 54 12 73 15 36 6 155
50 180 66 8 5 27 14 43 20 15 6 27 15 27 20 0 5 5 9 11 9 23 0 145 108 204
181 121 150 204 369 220 576 2 29 6 57 9 62 4 5 2 12 -4 16 -6 4 -8 10 -6 14
11 17 8 103 -9 236 -10 81 -77 297 -101 322 -6 6 -17 26 -24 45 -8 18 -16 35
-19 38 -4 3 -20 25 -36 49 -40 59 -149 169 -205 208 -109 74 -265 141 -323
139 -15 -1 -27 2 -27 6 0 4 -10 8 -22 8 -13 -1 -62 1 -110 3 -48 2 -89 3 -90
2z m162 -160 c47 -10 129 -49 160 -74 48 -41 110 -104 110 -113 0 -4 10 -19
23 -34 12 -14 22 -29 23 -32 0 -4 13 -33 27 -64 15 -32 29 -70 33 -85 4 -15 9
-32 13 -38 3 -5 6 -14 7 -20 1 -5 4 -21 7 -35 21 -96 28 -144 34 -205 7 -89 6
-281 -2 -354 -6 -51 -31 -192 -39 -216 -2 -5 -4 -13 -5 -17 -13 -57 -98 -238
-112 -238 -5 0 -9 -6 -9 -13 0 -8 -26 -39 -59 -70 -55 -53 -139 -101 -193
-111 -13 -3 -23 -5 -23 -7 0 -1 -30 -3 -67 -4 -79 -4 -166 14 -228 47 -46 24
-150 118 -150 135 0 6 -6 16 -14 23 -19 15 -87 154 -89 180 -1 11 -4 20 -7 20
-4 0 -7 6 -8 13 0 6 -7 39 -15 72 -45 179 -51 379 -22 670 2 17 4 30 5 30 2 0
5 15 13 50 30 148 89 261 190 364 111 114 251 158 397 126z"/>
<path d="M17220 22390 c-14 -9 -17 -117 -3 -131 10 -10 54 -22 91 -23 12 -1
22 -4 22 -8 0 -4 8 -7 18 -6 9 0 26 -2 37 -5 11 -2 39 -8 63 -12 34 -5 46 -13
54 -33 6 -15 17 -40 24 -57 7 -16 31 -77 54 -135 23 -58 47 -118 55 -135 25
-59 40 -100 37 -107 -1 -5 3 -8 9 -8 5 0 8 -4 4 -9 -3 -5 -1 -12 4 -15 5 -4
15 -23 21 -44 7 -20 19 -53 27 -72 9 -19 21 -48 28 -65 7 -16 52 -127 99 -245
48 -118 90 -224 95 -235 47 -112 65 -158 63 -167 -1 -5 2 -8 6 -8 5 0 9 -6 10
-12 0 -7 34 -95 76 -195 41 -101 70 -183 65 -183 -5 0 -9 -5 -9 -11 0 -6 -6
-25 -14 -42 -8 -18 -47 -108 -86 -202 -39 -93 -78 -186 -87 -205 -10 -19 -18
-41 -19 -47 -3 -20 -41 -77 -64 -98 -29 -27 -104 -27 -150 -2 -48 26 -88 57
-130 101 -19 20 -41 36 -47 36 -7 0 -40 -27 -74 -61 -61 -61 -103 -133 -114
-198 -3 -19 -8 -38 -10 -42 -8 -12 85 -97 129 -118 48 -23 89 -32 166 -35 61
-3 190 22 190 36 0 5 4 7 9 4 14 -9 106 79 147 141 44 66 84 146 126 253 16
41 40 100 53 130 13 30 47 114 75 185 29 72 59 144 66 160 7 17 29 71 49 120
20 50 43 104 51 122 7 17 14 38 14 47 0 9 5 16 10 16 6 0 10 8 10 18 0 10 3
22 8 26 4 4 7 11 8 14 0 4 4 16 9 27 21 53 78 192 86 210 26 61 91 221 93 230
2 6 8 21 14 35 18 39 93 224 95 235 1 6 4 12 7 15 3 3 10 19 16 35 42 110 90
221 97 226 5 3 8 9 8 13 -2 16 12 66 19 66 3 0 7 6 7 13 0 6 9 32 20 57 27 60
40 94 40 100 0 3 6 16 13 30 8 14 15 27 15 30 0 3 6 19 13 36 13 32 19 34 115
38 15 0 27 3 27 6 0 3 12 6 28 7 62 5 115 12 120 18 11 11 18 91 9 111 -9 21
-12 21 -311 19 -165 -1 -334 1 -374 4 -40 3 -79 3 -85 -1 -11 -7 -16 -123 -5
-133 2 -3 24 -7 49 -10 24 -3 55 -7 69 -9 14 -2 50 -7 80 -11 30 -4 60 -10 66
-13 9 -6 -43 -167 -86 -267 -24 -54 -39 -95 -34 -95 2 0 -2 -12 -10 -27 -7
-16 -39 -98 -71 -183 -31 -85 -70 -189 -86 -230 -16 -41 -29 -81 -29 -87 0 -7
-4 -13 -9 -13 -5 0 -11 -10 -14 -22 -3 -13 -24 -75 -47 -138 -51 -140 -69
-198 -64 -203 3 -2 -2 -9 -10 -16 -12 -10 -17 -2 -29 51 -32 136 -103 353
-148 455 -11 24 -19 45 -19 47 0 2 -8 21 -17 42 -9 22 -17 41 -18 44 -1 3 -8
21 -17 40 -8 19 -39 91 -68 160 -67 161 -75 178 -93 220 -9 19 -16 38 -17 42
0 4 -17 42 -36 84 -19 42 -32 79 -29 82 6 7 27 12 70 17 17 2 41 6 54 9 12 3
42 8 65 10 64 9 100 17 108 24 7 8 11 48 9 97 l-1 31 -432 0 c-238 0 -452 2
-475 5 -23 3 -47 3 -53 -1z"/>
<path d="M33583 22384 c-8 -21 -8 -75 0 -106 5 -18 14 -28 26 -28 35 0 201
-42 201 -50 0 -5 6 -15 13 -22 6 -7 41 -51 77 -98 35 -47 67 -87 70 -90 3 -3
16 -21 30 -40 13 -19 28 -39 32 -45 29 -36 106 -136 123 -159 11 -16 41 -56
67 -90 26 -33 54 -70 63 -81 37 -50 77 -101 88 -115 49 -60 60 -83 46 -94 -8
-6 -27 -29 -44 -51 -30 -40 -51 -67 -70 -89 -5 -6 -46 -56 -90 -111 -44 -55
-82 -102 -85 -105 -3 -3 -17 -21 -32 -42 -15 -20 -33 -42 -40 -50 -8 -7 -29
-33 -48 -58 -19 -25 -42 -53 -50 -62 -8 -9 -35 -44 -60 -77 -46 -62 -53 -67
-105 -75 -81 -13 -123 -19 -155 -22 -19 -1 -37 -4 -40 -5 -3 -1 -8 -1 -12 0
-4 0 -11 -11 -15 -27 -9 -35 -10 -40 -3 -82 l5 -34 103 -1 c56 0 102 4 102 8
0 4 8 3 18 -2 10 -5 24 -6 32 -1 8 5 22 4 32 -1 10 -5 18 -6 18 -2 0 7 45 8
132 1 20 -2 34 0 32 4 -3 5 5 5 18 0 13 -4 75 -7 138 -7 112 0 115 1 115 22 0
12 4 25 7 28 4 4 4 14 1 22 -3 8 -7 24 -8 36 -1 12 -3 26 -4 31 0 4 -7 6 -15
3 -8 -3 -17 -3 -20 0 -3 3 -34 8 -68 10 -35 2 -72 5 -83 8 -11 2 -26 4 -32 4
-18 1 -16 14 5 37 10 10 31 37 47 59 17 22 35 45 40 51 6 7 20 25 32 40 54 70
125 160 137 175 10 13 78 99 128 164 30 39 68 78 68 69 0 -6 8 -19 18 -30 9
-10 33 -41 52 -67 19 -26 47 -62 63 -78 15 -17 27 -34 27 -38 0 -3 16 -24 35
-46 19 -22 35 -43 35 -46 0 -3 8 -15 18 -26 9 -11 28 -35 42 -53 42 -56 75
-95 83 -98 4 -2 7 -9 7 -15 0 -7 13 -28 30 -47 16 -19 28 -35 27 -36 -1 -2
-25 -6 -52 -10 -28 -3 -59 -8 -70 -10 -11 -3 -42 -7 -70 -10 -57 -6 -67 -13
-70 -48 -2 -14 -6 -30 -10 -35 -3 -6 -1 -11 5 -11 6 0 9 -3 7 -7 -3 -5 -1 -17
3 -28 6 -18 16 -20 113 -20 59 0 107 4 107 8 0 4 9 3 19 -3 13 -7 22 -7 26 0
4 7 12 7 25 0 13 -7 21 -7 25 0 4 7 13 7 26 0 10 -6 19 -7 19 -2 0 10 30 9 48
-2 6 -4 12 -3 12 3 0 6 11 6 29 1 16 -4 32 -6 35 -2 9 8 56 9 56 0 0 -4 11 -3
24 2 15 5 27 5 34 -2 6 -6 12 -6 16 1 5 8 13 8 26 1 13 -7 21 -7 25 0 4 6 11
7 17 4 14 -9 267 -13 270 -5 7 27 3 138 -6 138 -18 1 -83 12 -190 34 -114 24
-99 11 -226 179 -47 62 -90 118 -95 124 -6 6 -26 32 -45 59 -18 26 -37 47 -42
47 -4 0 -8 7 -8 15 0 8 -3 15 -7 15 -5 1 -24 24 -43 51 -19 28 -42 58 -51 68
-8 9 -31 37 -49 64 -18 26 -37 47 -42 47 -4 0 -8 5 -8 11 0 5 -22 38 -50 72
-53 65 -58 78 -37 99 6 7 33 40 59 73 26 33 56 69 66 80 10 11 34 40 52 65 18
25 38 50 44 55 6 6 36 42 65 80 30 39 59 75 65 80 6 6 30 35 53 65 23 30 53
67 65 82 13 15 33 40 45 56 45 58 73 82 95 83 30 1 64 5 113 14 22 3 55 8 73
10 19 1 38 7 44 13 8 8 14 77 9 118 -1 7 -89 10 -293 9 -161 -1 -321 1 -355 4
-34 4 -66 5 -72 3 -13 -4 -15 -128 -2 -136 5 -3 30 -8 57 -11 27 -3 69 -8 94
-11 25 -3 53 -6 63 -6 9 1 17 -2 17 -5 0 -6 -78 -112 -91 -123 -3 -3 -18 -23
-34 -45 -17 -22 -32 -42 -35 -45 -4 -4 -126 -159 -162 -205 -4 -5 -18 -22 -30
-37 -13 -16 -45 -57 -73 -93 l-50 -66 -20 24 c-11 13 -29 36 -40 51 -18 25
-56 74 -101 129 -8 9 -14 20 -14 23 0 3 -6 11 -12 19 -15 15 -43 50 -95 120
-21 28 -41 52 -45 53 -5 2 -8 10 -8 17 0 7 -4 15 -9 17 -13 4 -111 136 -111
148 0 6 9 11 20 11 31 2 60 6 63 9 1 1 16 4 32 5 17 2 31 4 33 5 1 1 11 4 22
5 11 1 23 4 28 5 11 3 25 7 38 8 16 3 25 56 18 102 -6 35 -8 37 -38 33 -50 -7
-694 -7 -769 0 -55 5 -69 3 -74 -9z"/>
<path d="M27307 18592 c-9 -2 -17 -9 -17 -15 -4 -89 0 -1259 3 -1264 3 -5 8
-25 11 -45 16 -102 113 -199 223 -224 44 -9 174 -11 179 -2 3 5 10 6 15 2 5
-3 34 2 64 12 51 16 54 18 48 43 -3 14 -10 34 -14 43 -5 9 -9 25 -9 35 0 10
-7 26 -14 36 -11 15 -16 15 -27 5 -14 -13 -35 -16 -119 -20 -49 -1 -103 21
-131 56 -41 49 -43 87 -45 721 -1 336 -2 612 -3 615 -1 6 -136 7 -164 2z"/>
<path d="M23679 18580 c-32 -6 -105 -50 -83 -50 5 0 3 -4 -4 -9 -21 -13 -20
-102 1 -134 56 -86 179 -87 225 0 15 27 22 103 10 103 -5 0 -7 4 -4 9 9 13
-48 67 -81 78 -15 5 -44 6 -64 3z"/>
<path d="M13714 18531 c-5 -6 -26 -10 -78 -16 -21 -2 -43 -8 -50 -13 -6 -5
-27 -15 -46 -22 -48 -19 -139 -81 -184 -126 -279 -279 -282 -870 -6 -1144 67
-67 115 -99 202 -133 81 -33 124 -39 253 -39 111 0 153 5 235 32 146 48 158
57 139 103 -8 18 -14 34 -14 37 -2 17 -43 91 -46 83 -6 -14 -147 -70 -199 -79
-44 -7 -171 -7 -200 -1 -72 17 -159 68 -215 124 -30 31 -55 61 -55 66 0 6 -6
18 -14 26 -17 20 -62 135 -71 181 -16 86 -21 235 -10 290 3 14 7 41 10 61 12
93 75 212 148 283 126 122 316 152 513 80 52 -18 70 -21 81 -12 8 6 12 17 9
23 -2 7 4 26 15 44 10 17 17 31 14 31 -2 0 0 11 5 25 8 20 6 27 -9 35 -40 21
-119 44 -196 56 -40 7 -225 10 -231 5z"/>
<path d="M22816 18533 c-1 -1 -17 -4 -36 -7 -72 -10 -97 -17 -166 -51 -102
-50 -176 -130 -201 -220 -7 -27 -8 -152 -1 -190 6 -32 30 -88 50 -119 31 -46
138 -128 198 -152 8 -3 22 -10 30 -15 8 -5 22 -12 30 -15 8 -4 60 -24 115 -46
175 -71 247 -117 281 -184 25 -47 26 -129 3 -179 -38 -80 -94 -118 -207 -138
-57 -10 -160 -14 -177 -7 -3 2 -13 3 -22 4 -77 8 -214 70 -266 120 -17 16 -22
17 -25 5 -3 -8 -16 -31 -29 -52 -60 -96 -63 -104 -45 -119 26 -22 112 -70 112
-62 0 3 6 2 13 -4 19 -15 146 -52 207 -60 240 -29 439 22 557 144 76 80 101
151 99 279 -1 89 -5 108 -30 160 -26 52 -106 145 -125 145 -4 0 -16 8 -27 18
-25 24 -147 83 -264 127 -52 20 -99 41 -104 46 -6 5 -18 9 -28 9 -10 0 -18 5
-18 10 0 6 -5 10 -11 10 -6 0 -30 13 -53 30 -62 42 -87 111 -73 200 9 55 110
124 203 138 101 16 270 -6 345 -44 15 -7 29 -10 33 -7 3 4 6 2 6 -4 0 -6 8
-13 18 -16 9 -2 24 -8 34 -12 11 -5 18 0 23 17 4 13 18 46 31 75 24 52 31 84
17 81 -5 -1 -19 3 -33 9 -145 59 -210 72 -373 76 -49 1 -90 1 -91 0z"/>
<path d="M20290 17786 l0 -725 28 -3 c15 -2 59 -2 98 0 l71 3 0 725 0 724 -99
0 -98 0 0 -724z"/>
<path d="M17709 18424 c-1 -8 -2 -17 -3 -21 -1 -5 -6 -46 -10 -93 -5 -47 -10
-94 -13 -105 -3 -17 -8 -56 -12 -100 -1 -6 -38 -9 -96 -8 -83 2 -95 0 -96 -15
0 -9 -2 -27 -3 -40 -2 -13 1 -25 5 -28 5 -2 4 -15 -1 -28 -15 -41 1 -49 97
-50 l88 -2 1 -284 c2 -311 3 -332 31 -411 25 -73 109 -161 178 -184 57 -20
160 -26 220 -13 34 7 48 12 75 23 11 5 55 19 60 19 3 0 10 5 17 12 10 9 8 27
-10 83 -12 39 -25 71 -30 71 -4 0 -26 -9 -50 -20 -23 -10 -58 -21 -77 -23 -20
-2 -40 -6 -45 -9 -16 -9 -114 28 -131 48 -46 57 -48 75 -51 390 l-2 300 145
-1 c80 0 148 3 151 8 7 12 7 133 -1 145 -3 6 -51 10 -112 9 -58 -1 -108 1
-111 6 -2 4 -10 4 -16 0 -49 -30 -56 -6 -54 174 l2 160 -72 0 c-54 0 -73 -3
-74 -13z"/>
<path d="M14948 18165 c-2 -2 -20 -5 -41 -8 -92 -12 -200 -91 -248 -182 -13
-25 -27 -45 -31 -45 -4 0 -7 35 -7 78 1 42 1 89 0 103 l-1 27 -85 -2 c-63 -1
-88 -5 -95 -16 -5 -8 -6 -18 -3 -24 9 -13 12 -67 4 -62 -7 5 -6 -62 1 -70 3
-3 2 -20 -2 -39 -4 -19 -5 -37 -2 -40 7 -7 9 -55 2 -55 -3 0 -5 -12 -4 -27 1
-16 3 -28 4 -28 1 0 3 -15 4 -32 2 -18 1 -31 -3 -29 -7 5 -6 -62 2 -70 3 -3 2
-18 -3 -34 -4 -15 -4 -32 0 -36 5 -5 5 -27 1 -50 -4 -22 -4 -50 0 -62 5 -12 4
-24 -2 -28 -6 -4 -6 -11 1 -19 7 -8 9 -18 6 -24 -3 -5 -6 -26 -6 -48 1 -60 0
-127 -2 -138 -1 -5 2 -21 6 -34 5 -13 4 -21 0 -18 -11 6 -10 -55 1 -73 6 -9 4
-11 -6 -5 -10 6 -11 5 -3 -4 9 -10 96 -15 176 -12 17 1 18 22 17 296 0 162 2
298 5 303 2 4 7 26 11 49 3 24 12 55 20 70 8 15 15 32 15 36 0 22 91 111 135
132 55 25 126 34 176 21 18 -5 29 -2 38 8 8 9 11 16 8 16 -3 0 1 17 10 38 8
20 15 38 14 40 0 1 -1 3 0 5 0 1 2 9 4 17 8 38 11 45 20 52 6 5 4 8 -5 9 -8 1
-24 3 -35 4 -62 9 -95 12 -97 10z"/>
<path d="M16877 18164 c-1 -1 -24 -5 -52 -8 -59 -8 -159 -53 -197 -89 -16 -14
-28 -24 -28 -21 0 2 -13 -10 -30 -28 -22 -25 -29 -29 -30 -16 0 25 -67 97
-105 112 -38 16 -110 26 -122 17 -4 -3 -10 -13 -12 -21 -2 -8 -9 -37 -17 -65
-7 -27 -12 -50 -10 -52 1 -2 15 -4 29 -5 15 -1 27 -6 27 -10 0 -3 9 -9 19 -13
42 -13 44 -49 45 -720 l1 -640 93 -1 92 -2 0 280 c0 252 1 278 16 264 21 -22
132 -81 177 -96 89 -28 207 -17 309 29 56 26 165 130 193 187 11 21 27 50 36
64 9 14 17 27 17 30 0 3 5 24 11 47 34 125 33 290 -1 403 -12 40 -62 144 -81
166 -79 97 -176 157 -292 179 -35 7 -85 12 -88 9z m30 -170 c87 -6 216 -124
239 -221 4 -15 9 -32 13 -38 9 -16 11 -35 12 -125 0 -87 -2 -115 -13 -126 -4
-3 -4 -12 -1 -19 8 -21 -52 -136 -92 -177 -45 -46 -114 -80 -168 -83 -23 -2
-46 -4 -52 -5 -5 -1 -12 -1 -15 0 -3 1 -16 4 -30 5 -54 8 -82 19 -140 59 -88
59 -80 28 -80 332 l0 271 38 34 c48 43 97 74 135 84 4 2 8 3 10 5 1 1 19 3 39
4 21 1 40 5 44 9 4 3 12 3 18 -1 6 -3 25 -7 43 -8z"/>
<path d="M18775 18154 c-78 -11 -225 -67 -225 -85 0 -5 -5 -9 -11 -9 -21 0
-108 -97 -142 -160 -49 -90 -69 -175 -70 -295 0 -83 5 -123 28 -215 1 -3 8
-18 15 -35 7 -16 14 -33 14 -37 3 -22 95 -134 138 -168 72 -57 187 -107 253
-110 171 -7 174 -7 275 29 25 8 48 14 52 13 3 -1 12 5 18 13 7 8 19 15 27 15
26 0 157 143 187 204 78 159 83 388 10 554 -10 23 -22 42 -26 42 -5 0 -8 6 -8
14 0 28 -123 141 -190 173 -90 44 -97 47 -180 58 -77 11 -83 11 -165 -1z m165
-169 c112 -24 229 -155 256 -285 10 -44 10 -151 1 -210 -17 -109 -123 -249
-201 -266 -17 -3 -35 -9 -41 -12 -27 -16 -96 -16 -185 1 -101 19 -222 166
-246 297 -9 53 -12 141 -5 155 3 5 5 21 6 35 5 86 76 201 156 252 59 37 175
52 259 33z"/>
<path d="M21177 18164 c-1 -1 -24 -4 -52 -7 -67 -8 -123 -25 -162 -49 -18 -11
-33 -17 -33 -14 0 12 -78 -71 -98 -105 -19 -31 -35 -90 -35 -124 2 -78 29
-149 77 -196 33 -32 136 -95 149 -91 4 1 7 -2 7 -8 0 -5 3 -9 8 -8 6 2 58 -15
127 -41 56 -22 125 -57 125 -63 0 -5 5 -8 11 -8 26 0 65 -63 68 -110 5 -89
-84 -143 -239 -144 -50 0 -133 15 -147 26 -7 6 -13 8 -13 5 0 -10 -73 24 -106
49 -37 28 -37 28 -86 -67 l-34 -66 35 -19 c20 -10 38 -21 41 -24 11 -12 138
-50 192 -58 104 -16 257 -5 325 23 17 7 34 11 37 7 3 -3 6 0 6 7 0 7 5 9 10 6
6 -3 10 -1 10 4 0 6 6 11 13 11 18 0 138 118 130 127 -2 2 -2 5 -2 8 1 3 3 10
4 15 1 6 3 11 5 13 3 3 9 39 11 67 3 34 -10 106 -28 148 -20 48 -98 122 -163
154 -88 43 -144 66 -175 74 -49 12 -154 63 -181 87 -16 15 -26 37 -29 66 -3
37 0 47 32 81 23 27 47 42 71 46 21 4 42 9 47 13 14 8 155 8 155 -1 0 -4 9 -5
20 -3 11 2 22 -1 25 -6 4 -5 11 -7 16 -4 5 4 15 3 22 -2 6 -4 18 -8 25 -9 7
-1 30 -11 51 -22 l39 -21 6 22 c3 12 5 22 4 22 -1 0 4 11 12 24 7 14 15 40 17
58 4 31 2 34 -41 53 -53 22 -177 48 -254 53 -29 2 -54 2 -55 1z"/>
<path d="M24668 18165 c-2 -2 -28 -6 -58 -9 -101 -9 -200 -70 -278 -170 l-22
-29 0 90 0 89 -90 0 -90 0 0 -206 c-1 -649 0 -863 3 -866 6 -7 163 -8 173 -1
7 4 10 128 9 349 -1 278 2 349 13 372 19 39 106 131 157 166 113 77 250 55
305 -50 31 -59 36 -118 35 -477 l-1 -363 40 -1 c79 -2 138 0 143 5 7 7 6 543
-2 555 -3 6 -3 11 2 11 4 0 7 32 6 70 -2 70 -1 71 45 128 89 110 158 158 241
166 60 6 130 -19 161 -57 54 -68 58 -97 58 -499 0 -203 2 -371 4 -373 2 -3 44
-5 94 -7 l89 -2 1 375 c0 206 -4 397 -8 424 -11 68 -29 125 -40 125 -5 0 -7 4
-4 9 12 19 -72 109 -126 134 -136 66 -326 44 -410 -47 -10 -10 -18 -16 -18
-12 0 4 -15 -10 -32 -31 -18 -21 -35 -40 -39 -43 -3 -3 -12 -15 -21 -28 -15
-22 -15 -22 -51 35 -57 94 -129 145 -223 158 -21 3 -44 8 -51 10 -6 2 -13 2
-15 0z"/>
<path d="M26569 18166 c-2 -2 -26 -6 -54 -9 -94 -9 -183 -55 -256 -131 -36
-38 -37 -38 -44 -16 -11 33 -78 96 -117 109 -19 6 -52 13 -75 15 l-41 3 -19
-73 c-19 -71 -19 -74 -1 -74 10 0 19 1 21 2 1 2 16 -7 34 -20 19 -13 36 -37
42 -56 5 -19 9 -309 9 -657 0 -343 1 -632 1 -641 1 -15 13 -17 90 -16 88 1 89
1 93 27 1 14 3 137 2 274 0 136 1 247 3 247 7 0 88 -55 95 -65 4 -5 8 -7 8 -2
0 4 17 -1 38 -12 89 -46 251 -48 334 -5 15 8 30 13 34 12 3 -2 10 5 15 15 6 9
15 17 20 17 6 0 17 7 25 15 8 8 23 20 32 27 70 53 146 194 170 318 12 59 7
272 -7 313 -7 21 -14 44 -15 50 -12 67 -111 199 -188 249 -59 40 -172 82 -198
75 -10 -2 -24 -1 -32 4 -8 5 -17 7 -19 5z m60 -186 c84 -27 185 -149 207 -250
9 -42 13 -211 6 -225 -3 -5 -7 -22 -9 -38 -5 -47 -54 -138 -97 -182 -50 -50
-102 -75 -164 -80 -26 -2 -49 -5 -52 -6 -3 -1 -9 0 -15 1 -5 1 -23 4 -40 7
-47 6 -147 59 -180 93 l-30 31 -1 264 -1 264 41 41 c35 36 99 74 156 93 27 9
134 1 179 -13z"/>
<path d="M28360 18163 c-59 -8 -119 -25 -170 -51 -72 -36 -168 -132 -206 -207
-26 -51 -34 -72 -49 -127 -2 -5 -3 -9 -5 -10 -13 -17 -18 -251 -6 -308 4 -19
9 -44 11 -55 11 -76 79 -195 149 -258 46 -41 138 -86 209 -101 93 -19 259 -12
362 15 22 6 41 11 43 10 1 -1 15 5 31 13 16 9 31 13 33 10 3 -2 11 2 18 11 13
15 5 64 -21 136 l-10 25 -85 -28 c-70 -23 -168 -41 -219 -39 -42 1 -109 12
-125 21 -11 6 -20 8 -20 5 0 -14 -90 58 -117 92 -27 34 -60 105 -68 143 -2 8
-4 20 -5 25 -7 31 1 37 40 33 22 -2 40 -1 40 2 0 7 110 4 117 -4 3 -3 14 -1
24 5 11 5 19 6 19 2 0 -4 18 -8 40 -8 22 0 40 2 40 5 0 7 99 4 106 -3 3 -3 16
-2 29 3 13 5 26 6 29 3 7 -7 76 -10 76 -3 0 7 110 4 117 -3 3 -3 15 -2 28 3
14 5 26 5 34 -3 11 -11 11 -11 15 143 0 36 -5 90 -11 120 -7 30 -15 65 -17 77
-13 64 -139 233 -173 233 -7 0 -13 4 -13 9 0 5 -8 11 -17 14 -10 4 -35 13 -57
21 -33 12 -90 22 -171 30 -11 1 -31 0 -45 -1z m167 -187 c48 -20 110 -84 137
-141 10 -22 21 -68 24 -102 l5 -62 -292 1 c-164 0 -292 4 -292 9 -4 25 -2 38
9 81 13 50 43 108 77 149 24 29 91 72 119 76 11 2 22 5 24 8 10 10 152 -4 189
-19z"/>
<path d="M15198 18126 c-37 -19 -69 -31 -72 -28 -14 14 -4 -34 17 -81 13 -29
47 -106 76 -172 29 -66 57 -128 62 -138 5 -10 35 -75 65 -145 31 -70 63 -143
72 -162 9 -19 15 -38 14 -42 -1 -5 2 -8 8 -8 6 0 10 -6 10 -14 0 -8 19 -54 42
-103 23 -48 41 -90 41 -93 -1 -3 21 -5 48 -4 48 2 49 2 42 -24 -3 -15 -10 -30
-15 -33 -6 -3 -9 -9 -8 -13 3 -11 -51 -146 -61 -152 -5 -3 -7 -10 -4 -15 4 -5
2 -9 -4 -9 -5 0 -12 -9 -16 -20 -10 -33 -78 -94 -124 -112 -48 -19 -184 -19
-203 0 -27 27 -45 0 -63 -96 -2 -12 -7 -26 -10 -32 -3 -5 8 -16 25 -25 16 -8
30 -13 30 -9 0 4 6 1 14 -5 8 -6 18 -11 22 -10 5 1 14 0 19 -1 6 -1 41 -2 79
-1 148 1 251 56 349 183 16 20 85 159 107 213 20 50 71 192 75 205 8 35 41
115 48 121 5 3 8 10 7 15 -1 11 47 153 61 178 6 10 12 26 14 35 2 9 20 61 40
116 21 54 38 104 40 110 1 5 7 21 13 35 11 26 24 60 27 73 2 4 3 8 5 10 1 1 3
9 5 17 2 8 19 56 37 106 l35 91 -26 10 c-157 64 -154 64 -167 -4 -3 -18 -9
-33 -13 -33 -4 0 -8 -6 -8 -12 -1 -14 -45 -148 -65 -195 -14 -34 -13 -31 -23
-68 -4 -16 -10 -34 -14 -40 -3 -5 -6 -14 -7 -20 -1 -5 -17 -48 -34 -95 -17
-47 -33 -89 -34 -95 -2 -5 -6 -18 -10 -27 -4 -9 -9 -22 -10 -30 -2 -7 -6 -20
-9 -28 -10 -25 -38 -103 -48 -137 -10 -33 -28 -53 -30 -34 -3 23 -17 56 -108
254 -17 37 -31 72 -31 77 0 6 -4 10 -10 10 -6 0 -9 3 -8 8 2 9 -7 31 -39 102
-14 30 -52 116 -85 190 -103 230 -108 240 -115 240 -5 -1 -38 -16 -75 -34z"/>
<path d="M23610 17627 c0 -280 -3 -513 -5 -518 -3 -4 -1 -10 4 -14 6 -3 8 -12
4 -20 -4 -12 7 -15 58 -16 35 -1 71 -2 79 -3 8 -1 22 2 31 6 14 6 16 63 16
541 l0 533 -93 0 -93 1 -1 -510z"/>
</g>
</svg>
